<?xml version="1.0" encoding="UTF-8"?>
<svg version="1.1" xmlns="http://www.w3.org/2000/svg" width="1024" height="1024">
<path d="M0 0 C337.92 0 675.84 0 1024 0 C1024 337.92 1024 675.84 1024 1024 C686.08 1024 348.16 1024 0 1024 C0 686.08 0 348.16 0 0 Z " fill="#F6F6F6" transform="translate(0,0)"/>
<path d="M0 0 C1.06045741 -0.00467997 2.12091481 -0.00935994 3.21350729 -0.01418173 C6.77410736 -0.02616558 10.33432492 -0.01666023 13.89492798 -0.00723267 C16.44632187 -0.01129748 18.997714 -0.01663885 21.54910278 -0.02316284 C27.77058365 -0.03544496 33.99192273 -0.03361234 40.21340553 -0.02492492 C45.28501646 -0.01813885 50.35659705 -0.0172357 55.42821121 -0.02049637 C56.15127872 -0.02095607 56.87434623 -0.02141577 57.61932487 -0.0218894 C59.08874754 -0.02284868 60.5581702 -0.02382132 62.02759285 -0.02480717 C75.82223069 -0.03336952 89.61680883 -0.02352194 103.41143687 -0.00740607 C115.18363344 0.0059241 126.95574094 0.00373144 138.72793579 -0.01016235 C152.43423125 -0.02633156 166.14047388 -0.03246807 179.84677756 -0.02332556 C181.31862425 -0.0223701 182.79047095 -0.02142699 184.26231766 -0.02049637 C185.3481498 -0.01980213 185.3481498 -0.01980213 186.45591795 -0.01909386 C191.49340533 -0.01653212 196.53085819 -0.02087481 201.5683403 -0.02793503 C267.26391311 -0.11165972 330.52363489 3.57475512 384.58486938 45.38095093 C385.38666626 45.99067749 386.18846313 46.60040405 387.01455688 47.22860718 C429.33174793 80.14948903 457.8708111 129.29064153 465.58486938 182.38095093 C465.76002075 183.50533569 465.93517212 184.62972046 466.1156311 185.78817749 C467.43788613 194.78044861 467.90127245 203.54804244 467.83486938 212.63095093 C467.83176758 213.3028244 467.82866577 213.97469788 467.82546997 214.66693115 C467.50858233 273.50095131 443.24232555 326.51142009 402.58486938 368.38095093 C402.00881958 368.9774646 401.43276978 369.57397827 400.83926392 370.18856812 C397.08705187 374.01667694 393.20328935 377.48364364 388.95986938 380.75595093 C388.35505737 381.22508911 387.75024536 381.69422729 387.12710571 382.17758179 C360.71195402 402.49560585 331.65922147 416.81351936 299.08486938 424.19345093 C298.24528687 424.38842163 297.40570435 424.58339233 296.54067993 424.78427124 C280.62400232 428.15832721 264.21621468 428.66756838 248.00255775 428.65534592 C245.10377096 428.6543562 242.20533101 428.66759576 239.30659485 428.68432617 C231.0837038 428.72992447 222.86086182 428.75523638 214.6378479 428.7618103 C209.56249907 428.76683989 204.48753246 428.79113239 199.41231346 428.82713699 C197.4975432 428.83687128 195.58272008 428.83930213 193.66793251 428.8339653 C178.01568972 428.59197395 178.01568972 428.59197395 164.18252563 435.24032593 C163.67592407 435.86423218 163.16932251 436.48813843 162.64736938 437.13095093 C162.12272095 437.74454468 161.59807251 438.35813843 161.05752563 438.99032593 C157.22548957 445.21103169 156.14305607 450.84953999 156.2159729 457.99667358 C156.21220642 458.81725754 156.20843994 459.63784149 156.20455933 460.48329163 C156.19816328 462.25053393 156.19842239 464.01781068 156.20474434 465.78505325 C156.21390709 468.58518533 156.20357336 471.38465533 156.18812561 474.18475342 C156.14815918 482.14044264 156.14682684 490.09607638 156.14907837 498.05184937 C156.1491295 502.93062767 156.12995357 507.80904557 156.0997448 512.68772507 C156.08893864 515.44098091 156.10103525 518.19354397 156.11357117 520.94677734 C156.10466604 522.6391976 156.09459141 524.33161225 156.0831604 526.02401733 C156.0929039 526.78469009 156.1026474 527.54536285 156.11268616 528.3290863 C156.04333899 533.48371019 154.82400344 536.40183198 151.58486938 540.38095093 C149.65518188 541.80673218 149.65518188 541.80673218 147.70986938 542.69345093 C147.07307251 542.99895874 146.43627563 543.30446655 145.78018188 543.61923218 C141.0272494 545.26838135 136.24136959 545.50921242 131.24710083 545.53485107 C129.36717186 545.54775177 129.36717186 545.54775177 127.44926453 545.56091309 C126.0732426 545.56534728 124.69722024 545.56964573 123.32119751 545.57382202 C121.86208404 545.58173147 120.40297247 545.59000093 118.94386292 545.59860229 C114.16796712 545.62470797 109.39206302 545.64011065 104.61611938 545.65438843 C102.96878556 545.65975135 101.32145178 545.66512887 99.67411804 545.67052078 C92.82321683 545.69212572 85.97231789 545.71086385 79.1213913 545.72214317 C69.31494271 545.73839829 59.50888919 545.77164093 49.70258951 545.82854402 C42.79882251 545.86723699 35.89516126 545.88677462 28.99128866 545.89206374 C24.87069596 545.89571585 20.75052576 545.90772328 16.63005066 545.94016647 C12.75569498 545.97023905 8.88201776 545.97656232 5.00757027 545.96478271 C3.58778415 545.96456196 2.16796655 545.97286878 0.74828911 545.99043655 C-11.30372177 546.1314342 -11.30372177 546.1314342 -15.24411011 543.09448242 C-19.05298952 538.33381148 -18.55906518 533.55972775 -18.54655838 527.65675449 C-18.54861101 526.76217579 -18.55066365 525.86759709 -18.55277848 524.94590995 C-18.55846515 521.92681186 -18.55698918 518.90775914 -18.55557251 515.88865662 C-18.55815518 513.71087273 -18.56116806 511.53308932 -18.56457591 509.35530657 C-18.57266048 503.35396369 -18.57443629 497.35263277 -18.57517338 491.3512851 C-18.57702136 484.8856201 -18.5845673 478.41996133 -18.59130859 471.95429993 C-18.60587985 457.07231076 -18.61141932 442.19032286 -18.61600054 427.30832784 C-18.61833572 419.95689769 -18.62193825 412.60546832 -18.62569592 405.25403878 C-18.63853054 380.09720415 -18.64925075 354.94036997 -18.65269852 329.78353214 C-18.65292015 328.20423876 -18.65314193 326.62494538 -18.65336387 325.045652 C-18.65358451 323.46251782 -18.65380499 321.87938363 -18.65402532 320.29624945 C-18.65446787 317.12013757 -18.65491499 313.94402569 -18.65536499 310.76791382 C-18.65547438 309.98042222 -18.65558377 309.19293062 -18.65569648 308.38157563 C-18.65932892 282.83428828 -18.67525648 257.28702926 -18.69855535 231.73975277 C-18.72313467 204.73920441 -18.73687043 177.73867226 -18.73806643 150.73811239 C-18.73823789 147.77596914 -18.73845332 144.8138259 -18.73870087 141.85168266 C-18.73878452 140.75761216 -18.73878452 140.75761216 -18.73886986 139.64143922 C-18.74002184 127.8895428 -18.75105605 116.13767541 -18.76558792 104.3857888 C-18.77993268 92.5814329 -18.78294818 80.77711753 -18.77514794 68.97275526 C-18.7712285 62.57425448 -18.77223399 56.17585168 -18.78620529 49.77736282 C-18.79886655 43.92554916 -18.79781559 38.07390787 -18.78561458 32.22209471 C-18.78364404 30.09966128 -18.78679793 27.97721595 -18.79545894 25.85479928 C-18.80645207 22.97998329 -18.79913449 20.10578644 -18.78706741 17.2309885 C-18.79466261 16.39817257 -18.8022578 15.56535663 -18.81008315 14.70730385 C-18.76797645 10.09202766 -18.35662248 7.15613985 -15.41513062 3.38095093 C-10.86785506 -0.61288746 -5.73173681 -0.03868655 0 0 Z " fill="#435ED7" transform="translate(286.4151306152344,245.61904907226563)"/>
<path d="M0 0 C1.10973175 -0.00151062 1.10973175 -0.00151062 2.24188232 -0.00305176 C13.49488179 0.00731883 24.21843106 0.60971791 35.1875 3.25 C36.4559375 3.54003906 37.724375 3.83007812 39.03125 4.12890625 C68.13901433 11.31563732 94.0058589 26.27540225 116.1875 46.25 C117.04303467 47.01868408 117.89856934 47.78736816 118.7800293 48.5793457 C125.99411598 55.10387126 132.9523302 61.85843135 139.81665039 68.7487793 C141.51269726 70.45023778 143.21409821 72.14621263 144.91601562 73.84179688 C150.55588728 79.47792352 156.01284035 85.17923876 161.1875 91.25 C162.34837436 92.54843036 163.51248236 93.84397637 164.6796875 95.13671875 C165.80745111 96.40350391 166.93505598 97.6704304 168.0625 98.9375 C168.64257812 99.57494141 169.22265625 100.21238281 169.8203125 100.86914062 C175.3902671 107.17438129 175.3902671 107.17438129 175.1875 111.25 C173.703125 113.6875 173.703125 113.6875 171.4375 116.25 C170.60347656 117.21164062 169.76945312 118.17328125 168.91015625 119.1640625 C168.23944092 119.92058105 168.23944092 119.92058105 167.55517578 120.69238281 C166.19601584 122.24030149 164.8730631 123.81246443 163.55859375 125.3984375 C153.96869576 136.95920056 143.72127456 147.81109373 133.14440918 158.46832275 C132.14864564 159.47212632 131.15436706 160.47740562 130.16174316 161.48431396 C123.52176647 168.2096787 116.61683351 174.40247036 109.1875 180.25 C108.51936279 180.78802246 107.85122559 181.32604492 107.1628418 181.88037109 C71.37240279 210.56482322 27.91630216 223.12940201 -17.72265625 218.75390625 C-46.56623863 215.44468142 -73.6011529 203.56549322 -96.8125 186.25 C-97.36470215 185.84056152 -97.9169043 185.43112305 -98.48583984 185.00927734 C-112.17664914 174.79091612 -124.2235165 162.90749293 -136.3125 150.875 C-137.1492627 150.04299072 -137.98602539 149.21098145 -138.84814453 148.35375977 C-143.70890525 143.47983021 -148.34830582 138.48833993 -152.8125 133.25 C-153.76017852 132.15864733 -154.70808234 131.06749024 -155.65625 129.9765625 C-170.90361292 112.25052284 -170.90361292 112.25052284 -170.72265625 108.27734375 C-169.51430415 105.58577834 -167.90381456 103.6321351 -166 101.375 C-164.78763672 99.93253906 -164.78763672 99.93253906 -163.55078125 98.4609375 C-163.11072754 97.94499023 -162.67067383 97.42904297 -162.21728516 96.89746094 C-160.73506194 95.15918456 -159.26388277 93.41191509 -157.79296875 91.6640625 C-153.20260747 86.23435396 -148.63427774 80.85662157 -143.49462891 75.93286133 C-141.78815911 74.22564851 -140.22664175 72.44932049 -138.66015625 70.61328125 C-128.74213274 59.21205469 -117.83611209 48.41510104 -105.8125 39.25 C-104.79027344 38.43402344 -103.76804687 37.61804688 -102.71484375 36.77734375 C-73.32716392 13.42084941 -37.5978725 0.0353256 0 0 Z " fill="#F4F4F5" transform="translate(509.8125,351.75)"/>
<path d="M0 0 C14.19699651 11.44391897 23.98927303 27.34140445 26.10302734 45.59228516 C28.01680965 66.81432914 23.58357633 86.42545688 10.19726562 103.37646484 C3.05462534 111.7410383 -4.80370284 117.08175833 -14.76757812 121.53271484 C-15.74029663 121.96813599 -15.74029663 121.96813599 -16.73266602 122.41235352 C-25.35898506 126.08181445 -33.55946643 127.08639366 -42.89257812 127.03271484 C-44.41105347 127.02534302 -44.41105347 127.02534302 -45.96020508 127.01782227 C-62.7480008 126.75641364 -77.39707536 122.14105769 -90.70507812 111.72021484 C-91.40375 111.18654297 -92.10242188 110.65287109 -92.82226562 110.10302734 C-104.38343616 100.70114158 -113.42903306 85.72967938 -115.49414062 70.88671875 C-117.50102098 50.27438511 -115.48234532 29.88031031 -102.05273438 13.27880859 C-76.76895124 -15.94675705 -31.9046032 -23.94672537 0 0 Z " fill="#425CD6" transform="translate(556.705078125,405.27978515625)"/>
<path d="M0 0 C0.33 0 0.66 0 1 0 C1.09273443 11.10931122 1.16378263 22.21853015 1.20724869 33.3281498 C1.22811166 38.48697214 1.25640597 43.64552942 1.30175781 48.80419922 C1.34526124 53.78385392 1.36914681 58.76325386 1.37950897 63.74308395 C1.38689224 65.64168686 1.40131014 67.54027602 1.42292023 69.43877029 C1.45201408 72.10092403 1.45595352 74.76202893 1.45410156 77.42431641 C1.47567322 78.59820419 1.47567322 78.59820419 1.49768066 79.79580688 C1.4587639 84.9755857 0.38566261 87.86849209 -3 92 C-4.9296875 93.42578125 -4.9296875 93.42578125 -6.875 94.3125 C-7.51179687 94.61800781 -8.14859375 94.92351562 -8.8046875 95.23828125 C-13.55988565 96.88821655 -18.34788303 97.12828011 -23.34449768 97.15390015 C-24.59922882 97.16250061 -25.85395996 97.17110107 -27.14671326 97.17996216 C-28.52432209 97.18439633 -29.90193137 97.18869478 -31.27954102 97.19287109 C-32.74027701 97.20078045 -34.20101108 97.20904991 -35.66174316 97.21765137 C-40.4424455 97.24375516 -45.22315614 97.25915821 -50.00390625 97.2734375 C-51.65250084 97.27880026 -53.30109537 97.28417777 -54.94968987 97.28956985 C-61.8048823 97.31117334 -68.66007246 97.32991222 -75.51529026 97.34119225 C-85.33075076 97.35745289 -95.14581691 97.39071047 -104.96112877 97.44759309 C-111.86997567 97.4862667 -118.77871691 97.50582132 -125.68766922 97.51111281 C-129.81214209 97.5147672 -133.9361932 97.5267991 -138.06054878 97.55921555 C-141.93736363 97.58925453 -145.81350045 97.59562344 -149.6904068 97.58383179 C-151.11222548 97.58361076 -152.53407531 97.59194015 -153.95578575 97.60948563 C-155.897887 97.63214818 -157.84029537 97.62090684 -159.78248596 97.60800171 C-160.86886132 97.61131186 -161.95523668 97.614622 -163.07453251 97.61803246 C-166.93792898 96.8018537 -168.47513381 94.94411503 -171 92 C-170.4829953 92.32498978 -169.9659906 92.64997955 -169.43331909 92.9848175 C-166.20503653 94.33165934 -163.5644017 94.24692081 -160.06689453 94.24291992 C-159.37678787 94.24481827 -158.68668121 94.24671661 -157.97566223 94.24867249 C-155.69459648 94.25237503 -153.41385002 94.24167251 -151.1328125 94.23046875 C-149.5353906 94.22927513 -147.93796798 94.22882417 -146.34054565 94.2290802 C-142.986426 94.22751553 -139.63241309 94.21923544 -136.27832031 94.20581055 C-132.0177321 94.18895831 -127.7572626 94.18499249 -123.49664497 94.18575573 C-120.1916901 94.18548098 -116.88676025 94.17994923 -113.58181381 94.17275429 C-112.01363184 94.16960969 -110.44544707 94.16761027 -108.87726212 94.16686058 C-101.2620048 94.15924426 -93.65670161 94.06285531 -86.05029297 93.67700195 C-84.92928192 93.6205098 -83.80827087 93.56401764 -82.65328979 93.5058136 C-81.33991135 93.25543587 -81.33991135 93.25543587 -80 93 C-79.01 91.515 -79.01 91.515 -78 90 C-77.67 90.99 -77.34 91.98 -77 93 C-76.18015625 92.98839844 -75.3603125 92.97679687 -74.515625 92.96484375 C-73.43796875 92.95582031 -72.3603125 92.94679688 -71.25 92.9375 C-70.18265625 92.92589844 -69.1153125 92.91429687 -68.015625 92.90234375 C-65.43724284 92.98584058 -63.45817427 93.32296048 -61 94 C-56.56863789 94.22156811 -53.10625413 94.12564783 -48.875 92.8125 C-44.35169961 91.86406605 -42.79876463 92.53080299 -39 95 C-39 94.01 -39 93.02 -39 92 C-37.4375 92.52083333 -35.875 93.04166667 -34.3125 93.5625 C-30.85415944 94.21678065 -27.52019603 94.05587613 -24 94 C-20.66666667 94 -17.33333333 94 -14 94 C-14 93.01 -14 92.02 -14 91 C-10.88742431 91 -8.89234315 91.17361624 -6 92 C-5.67 91.01 -5.34 90.02 -5 89 C-4.34 89 -3.68 89 -3 89 C-3.33 87.02 -3.66 85.04 -4 83 C-3.34 82.67 -2.68 82.34 -2 82 C-2.00523682 81.44014404 -2.01047363 80.88028809 -2.01586914 80.3034668 C-2.03666691 77.76482263 -2.04966904 75.22619641 -2.0625 72.6875 C-2.07087891 71.80642578 -2.07925781 70.92535156 -2.08789062 70.01757812 C-2.09111328 69.17001953 -2.09433594 68.32246094 -2.09765625 67.44921875 C-2.10289307 66.66893311 -2.10812988 65.88864746 -2.11352539 65.0847168 C-2 63 -2 63 -1 60 C-0.88324185 58.05283354 -0.82330075 56.10206523 -0.79467773 54.15161133 C-0.77473251 52.9505928 -0.75478729 51.74957428 -0.73423767 50.51216125 C-0.71752518 49.21521835 -0.70081268 47.91827545 -0.68359375 46.58203125 C-0.66301707 45.2410977 -0.64202041 43.90017054 -0.62062073 42.55924988 C-0.56547373 39.03298111 -0.51603206 35.50665452 -0.46777344 31.98028564 C-0.4175045 28.38068507 -0.36184661 24.78116827 -0.30664062 21.18164062 C-0.19914929 14.12116648 -0.09768435 7.06061718 0 0 Z " fill="#1762DE" transform="translate(441,694)"/>
<path d="M0 0 C0.33 0 0.66 0 1 0 C2.0112406 12.31546584 2.07841815 24.58215615 1.96289062 36.92822266 C1.95451172 38.18683105 1.94613281 39.44543945 1.9375 40.7421875 C1.92589844 41.8751123 1.91429687 43.00803711 1.90234375 44.17529297 C1.86924618 47.07983936 1.86924618 47.07983936 3 50 C2.505 50.495 2.505 50.495 2 51 C1.91233062 52.35832151 1.89304694 53.72115938 1.90234375 55.08227539 C1.90564697 55.95151138 1.9089502 56.82074738 1.91235352 57.71632385 C1.92065186 58.66716354 1.9289502 59.61800323 1.9375 60.59765625 C1.94128662 61.57931259 1.94507324 62.56096893 1.94897461 63.57237244 C1.96528572 67.77982738 1.9929592 71.98718582 2.02050781 76.19458008 C2.09431501 88.51164123 2.01061031 100.71815222 1 113 C1.66 113.33 2.32 113.66 3 114 C2.505 114.495 2.505 114.495 2 115 C1.90589439 116.73654684 1.88256982 118.47695876 1.88647461 120.21604919 C1.8865451 121.34729721 1.8866156 122.47854523 1.88668823 123.64407349 C1.89185455 124.8964682 1.89702087 126.14886292 1.90234375 127.43920898 C1.90458547 129.45111978 1.9068269 131.46303057 1.90905762 133.47494137 C1.91243664 135.64554398 1.91829404 137.81612768 1.92483521 139.98672295 C1.93833388 144.51361244 1.94424771 149.04049209 1.94897461 153.56739807 C1.96103934 164.00655259 1.98300859 174.44568198 2.00520325 184.88481903 C2.02541255 194.42697784 2.04349157 203.96912771 2.05341816 213.51130348 C2.05837984 218.00359765 2.06821044 222.49584604 2.08184814 226.98812187 C2.08935798 229.79762046 2.0926336 232.60711295 2.0948143 235.41662025 C2.09755131 237.32314465 2.10533103 239.22965977 2.11331177 241.13616943 C2.11371929 247.82248633 1.83597613 254.36379523 1 261 C1.66 261.33 2.32 261.66 3 262 C2.67 262.33 2.34 262.66 2 263 C1.95099123 265.75674308 1.95859613 268.49419139 2 271.25 C2.09020709 281.85855825 1.59006234 292.4104884 1 303 C0.67 303 0.34 303 0 303 C0 203.01 0 103.02 0 0 Z " fill="#5C57D3" transform="translate(270,303)"/>
<path d="M0 0 C0.66 0 1.32 0 2 0 C3.38320168 4.61971281 2.52682045 8.4931293 1.4375 13.0625 C1.16341309 14.24126709 1.16341309 14.24126709 0.88378906 15.44384766 C-3.94170049 35.65108366 -10.65510933 55.04705797 -20.25 73.5 C-20.66217773 74.29543213 -21.07435547 75.09086426 -21.49902344 75.91040039 C-23.60271827 79.83414102 -25.57914643 83.0499061 -29 86 C-29 84.35 -29 82.7 -29 81 C-28.34 81 -27.68 81 -27 81 C-27.33 79.68 -27.66 78.36 -28 77 C-27.01 77 -26.02 77 -25 77 C-24.896875 76.319375 -24.79375 75.63875 -24.6875 74.9375 C-23.85274981 71.37084011 -22.50527246 68.33777806 -21 65 C-20.34 65 -19.68 65 -19 65 C-18.731875 64.113125 -18.46375 63.22625 -18.1875 62.3125 C-17 59 -17 59 -15.5625 56.64453125 C-13.96437544 53.93970544 -12.87413557 51.32805526 -11.8125 48.375 C-11.46832031 47.43398438 -11.12414062 46.49296875 -10.76953125 45.5234375 C-9.85415408 42.96143801 -9.85415408 42.96143801 -10 40 C-10 39.01 -10 38.02 -10 37 C-9.01 36.505 -9.01 36.505 -8 36 C-7.27954236 34.0187415 -6.61998741 32.01495907 -6 30 C-5.62875 29.195625 -5.2575 28.39125 -4.875 27.5625 C-3.81823158 24.9189736 -3.81823158 24.9189736 -4 21.625 C-4 17.66411035 -3.13624619 14.78748729 -2 11 C-1.26788654 7.3443794 -0.62474457 3.67535901 0 0 Z " fill="#1570E3" transform="translate(749,488)"/>
<path d="M0 0 C0.33 0 0.66 0 1 0 C1.6505237 3.64501224 2.29454906 7.291145 2.9375 10.9375 C3.11990234 11.95908203 3.30230469 12.98066406 3.49023438 14.03320312 C5.34175116 24.57001682 6.16372856 34.54511236 6.13037109 45.2644043 C6.12503779 47.29809112 6.13033048 49.33155447 6.13671875 51.36523438 C6.12897071 59.29535679 5.81555969 67.11099268 5 75 C3.515 75.495 3.515 75.495 2 76 C2 73.69 2 71.38 2 69 C2.66 69 3.32 69 4 69 C3.9278125 67.88882813 3.855625 66.77765625 3.78125 65.6328125 C2.92878351 52.1090406 2.92878351 52.1090406 3 46.75 C3.09900344 38.44785439 2.16918007 30.17484276 1.18359375 21.94140625 C0.93325251 19.29418083 1 16.65695017 1 14 C0.67 13.67 0.34 13.34 0 13 C-0.04080783 11.00041636 -0.04254356 8.99954746 0 7 C-0.66 7 -1.32 7 -2 7 C-1.125 2.25 -1.125 2.25 0 0 Z " fill="#246DE1" transform="translate(748,411)"/>
<path d="M0 0 C0.33 0 0.66 0 1 0 C2.0112406 12.31546584 2.07841815 24.58215615 1.96289062 36.92822266 C1.95451172 38.18683105 1.94613281 39.44543945 1.9375 40.7421875 C1.92589844 41.8751123 1.91429687 43.00803711 1.90234375 44.17529297 C1.86924618 47.07983936 1.86924618 47.07983936 3 50 C2.505 50.495 2.505 50.495 2 51 C1.91233062 52.35832151 1.89304694 53.72115938 1.90234375 55.08227539 C1.90564697 55.95151138 1.9089502 56.82074738 1.91235352 57.71632385 C1.92065186 58.66716354 1.9289502 59.61800323 1.9375 60.59765625 C1.94128662 61.57931259 1.94507324 62.56096893 1.94897461 63.57237244 C1.96528572 67.77982738 1.9929592 71.98718582 2.02050781 76.19458008 C2.09431501 88.51164123 2.01061031 100.71815222 1 113 C1.66 113.33 2.32 113.66 3 114 C2.01 114 1.02 114 0 114 C0 76.38 0 38.76 0 0 Z " fill="#6A4FCF" transform="translate(270,303)"/>
<path d="M0 0 C1.98 0 3.96 0 6 0 C-4.9388507 12.03273577 -23.6130774 22.76844632 -39 28 C-39.99 27.67 -40.98 27.34 -42 27 C-40.68 26.67 -39.36 26.34 -38 26 C-38 25.34 -38 24.68 -38 24 C-32.26239061 20.30242951 -26.61776809 18.57964808 -20 17 C-20 16.34 -20 15.68 -20 15 C-19.34 15 -18.68 15 -18 15 C-17.67 14.34 -17.34 13.68 -17 13 C-14.85118612 11.75230162 -13.50320403 11 -11 11 C-11 10.34 -11 9.68 -11 9 C-9.02 8.34 -7.04 7.68 -5 7 C-5 6.34 -5 5.68 -5 5 C-4.01 5 -3.02 5 -2 5 C-1.34 3.35 -0.68 1.7 0 0 Z " fill="#1B71E3" transform="translate(664,629)"/>
<path d="M0 0 C0.66 0.33 1.32 0.66 2 1 C0.37660195 2.70884005 -1.29319053 4.37446717 -3 6 C-3.66 6 -4.32 6 -5 6 C-5 6.66 -5 7.32 -5 8 C-5.66 8 -6.32 8 -7 8 C-7.33 8.99 -7.66 9.98 -8 11 C-8.99 10.67 -9.98 10.34 -11 10 C-11.66 11.32 -12.32 12.64 -13 14 C-13.66 14 -14.32 14 -15 14 C-15.33 14.99 -15.66 15.98 -16 17 C-19.96 17.495 -19.96 17.495 -24 18 C-24 18.66 -24 19.32 -24 20 C-26.30276574 22.21747812 -27.52480092 22.96760006 -30.75 23.1875 C-31.86375 23.0946875 -31.86375 23.0946875 -33 23 C-33 23.66 -33 24.32 -33 25 C-37.74354436 27.22656164 -41.72250715 28.46148032 -47 29 C-45.43854113 25.87708227 -42.28985056 25.36601407 -39.1875 24.125 C-25.12068493 18.22700152 -11.3957236 10.19617375 0 0 Z " fill="#2261DD" transform="translate(616,533)"/>
<path d="M0 0 C0.93134766 0.05800781 1.86269531 0.11601562 2.82226562 0.17578125 C3.78197266 0.25699219 4.74167969 0.33820313 5.73046875 0.421875 C7.1990332 0.52048828 7.1990332 0.52048828 8.69726562 0.62109375 C11.10620207 0.78560648 13.51194435 0.96975751 15.91796875 1.171875 C15.91796875 1.501875 15.91796875 1.831875 15.91796875 2.171875 C15.03274536 2.19374878 15.03274536 2.19374878 14.12963867 2.21606445 C11.45425646 2.29056344 8.78011983 2.38721495 6.10546875 2.484375 C5.17669922 2.50693359 4.24792969 2.52949219 3.29101562 2.55273438 C2.39833984 2.58818359 1.50566406 2.62363281 0.5859375 2.66015625 C-0.23624268 2.68634033 -1.05842285 2.71252441 -1.90551758 2.73950195 C-4.54651978 3.26414748 -5.42327309 4.09245194 -7.08203125 6.171875 C-7.41203125 6.831875 -7.74203125 7.491875 -8.08203125 8.171875 C-7.42203125 8.501875 -6.76203125 8.831875 -6.08203125 9.171875 C-6.41203125 9.831875 -6.74203125 10.491875 -7.08203125 11.171875 C-7.17121902 12.56096804 -7.19962666 13.95424407 -7.19555664 15.34619141 C-7.19548111 16.20693268 -7.19540558 17.06767395 -7.19532776 17.95449829 C-7.19016647 18.88474823 -7.18500519 19.81499817 -7.1796875 20.7734375 C-7.17827255 21.72503754 -7.1768576 22.67663757 -7.17539978 23.65707397 C-7.16979137 26.70370597 -7.15723744 29.75026513 -7.14453125 32.796875 C-7.13951733 34.85937394 -7.13495424 36.92187403 -7.13085938 38.984375 C-7.11981921 44.04690317 -7.10254892 49.10937673 -7.08203125 54.171875 C-8.07203125 54.666875 -8.07203125 54.666875 -9.08203125 55.171875 C-9.35166927 47.98283012 -9.58163026 40.79330349 -9.78393555 33.60205078 C-9.85745959 31.15546934 -9.94009161 28.70914406 -10.03198242 26.26318359 C-10.16244088 22.74864707 -10.26019694 19.23449292 -10.3515625 15.71875 C-10.39924271 14.6238324 -10.44692291 13.52891479 -10.49604797 12.40081787 C-10.64658515 4.86779046 -10.64658515 4.86779046 -7.8828125 1.4609375 C-4.89520158 0.08588645 -3.25368705 -0.23953524 0 0 Z " fill="#714BCD" transform="translate(279.08203125,246.828125)"/>
<path d="M0 0 C0.99 0 1.98 0 3 0 C1.49706319 4.36178399 -0.81861601 7.91460537 -3.5 11.625 C-3.93489746 12.23166504 -4.36979492 12.83833008 -4.81787109 13.46337891 C-9.13278711 19.3718279 -13.93830383 24.7229125 -19 30 C-19.33 29.01 -19.66 28.02 -20 27 C-19.34 27 -18.68 27 -18 27 C-18 26.34 -18 25.68 -18 25 C-17.02149805 23.97895449 -16.02019573 22.9793879 -15 22 C-14.67 21.34 -14.34 20.68 -14 20 C-13.34 20 -12.68 20 -12 20 C-12 19.34 -12 18.68 -12 18 C-11.34 18 -10.68 18 -10 18 C-10.0825 17.236875 -10.165 16.47375 -10.25 15.6875 C-10 13 -10 13 -8.125 11.1875 C-6 10 -6 10 -4 10 C-3.855625 9.236875 -3.71125 8.47375 -3.5625 7.6875 C-3 5 -3 5 -2 2 C-1.34 2 -0.68 2 0 2 C0 1.34 0 0.68 0 0 Z " fill="#1E76E4" transform="translate(717,574)"/>
<path d="M0 0 C2.475 0.495 2.475 0.495 5 1 C5 1.99 5 2.98 5 4 C-2.84499651 5.29909106 -10.62805632 6.22033789 -18.5625 6.6875 C-19.32353027 6.73575928 -20.08456055 6.78401855 -20.86865234 6.83374023 C-24.75085646 7.0377263 -28.2300651 6.99287394 -32 6 C-29.14359812 4.41599532 -26.74202961 3.6274966 -23.5 3.25 C-22.7471875 3.15203125 -21.994375 3.0540625 -21.21875 2.953125 C-18.65417788 3.0073061 -17.18765493 3.70729481 -15 5 C-14.67 4.34 -14.34 3.68 -14 3 C-13.11248047 3.01740234 -13.11248047 3.01740234 -12.20703125 3.03515625 C-7.99768215 3.08322386 -4.1077667 3.06006883 0 2 C0 1.34 0 0.68 0 0 Z " fill="#1B67E0" transform="translate(575,667)"/>
<path d="M0 0 C0 0.99 0 1.98 0 3 C-0.474375 3.433125 -0.94875 3.86625 -1.4375 4.3125 C-3.62100982 6.6706906 -3.65266951 8.87402561 -4 12 C-4.33 11.34 -4.66 10.68 -5 10 C-10.11065534 14.37982451 -10.11065534 14.37982451 -15 19 C-16.94675272 20.94675272 -18.94703539 22.79091764 -21 24.625 C-21.66 25.21539063 -22.32 25.80578125 -23 26.4140625 C-24.93355413 27.9473105 -26.78580877 28.93615031 -29 30 C-23.47349666 23.25919575 -17.30550441 17.1928871 -11.125 11.0625 C-10.04403726 9.98656273 -8.96330617 8.91039269 -7.8828125 7.83398438 C-5.25787359 5.21996708 -2.62981372 2.60911404 0 0 Z " fill="#1F62DE" transform="translate(660,492)"/>
<path d="M0 0 C-5.90887987 3.16008541 -11.69590153 5.33202555 -18.125 7.1875 C-19.42630859 7.57711914 -19.42630859 7.57711914 -20.75390625 7.97460938 C-29.96403732 10.68718222 -29.96403732 10.68718222 -34 11 C-34.99 10.34 -35.98 9.68 -37 9 C-35.948125 8.87625 -34.89625 8.7525 -33.8125 8.625 C-29.65135523 7.94284512 -26.40647945 6.66622711 -22.625 4.875 C-19.33329436 3.77776479 -16.44580023 3.86487058 -13 4 C-12.67 3.34 -12.34 2.68 -12 2 C-11.34 2.33 -10.68 2.66 -10 3 C-10 2.34 -10 1.68 -10 1 C-8.71073008 0.63720544 -7.41846728 0.28503302 -6.125 -0.0625 C-5.40570312 -0.25972656 -4.68640625 -0.45695313 -3.9453125 -0.66015625 C-2 -1 -2 -1 0 0 Z " fill="#1A6DE2" transform="translate(621,658)"/>
<path d="M0 0 C1.65 0 3.3 0 5 0 C-2.24829435 8.69795322 -10.02512062 16.084929 -19 23 C-19.66 22.67 -20.32 22.34 -21 22 C-21 21.34 -21 20.68 -21 20 C-18.69 18.68 -16.38 17.36 -14 16 C-14 15.34 -14 14.68 -14 14 C-12.35 13.67 -10.7 13.34 -9 13 C-9 12.01 -9 11.02 -9 10 C-8.01 9.67 -7.02 9.34 -6 9 C-4.66172696 7.33729713 -3.32810215 5.67083819 -2 4 C-1.34 4 -0.68 4 0 4 C0 2.68 0 1.36 0 0 Z " fill="#1D74E4" transform="translate(691,606)"/>
<path d="M0 0 C3 1 3 1 3.89135742 2.6706543 C4.12701416 3.38133057 4.3626709 4.09200684 4.60546875 4.82421875 C4.86650391 5.60603516 5.12753906 6.38785156 5.39648438 7.19335938 C5.65751953 8.01642578 5.91855469 8.83949219 6.1875 9.6875 C6.46013672 10.49123047 6.73277344 11.29496094 7.01367188 12.12304688 C8.45661787 16.54591142 9.34250592 20.28864085 9 25 C8.34 25.33 7.68 25.66 7 26 C6.34 22.37 5.68 18.74 5 15 C4.01 14.67 3.02 14.34 2 14 C2.33 11.36 2.66 8.72 3 6 C1.68 5.67 0.36 5.34 -1 5 C-0.67 3.35 -0.34 1.7 0 0 Z " fill="#2763DC" transform="translate(738,384)"/>
<path d="M0 0 C0.33 0 0.66 0 1 0 C1.20638953 24.98265839 1.20638953 24.98265839 0 35 C-1.485 35.495 -1.485 35.495 -3 36 C-3 33.69 -3 31.38 -3 29 C-2.34 29 -1.68 29 -1 29 C-1.08378906 27.78441406 -1.16757812 26.56882812 -1.25390625 25.31640625 C-1.35704703 23.73178879 -1.45989661 22.14715235 -1.5625 20.5625 C-1.61857422 19.76005859 -1.67464844 18.95761719 -1.73242188 18.13085938 C-1.8616295 16.08937889 -1.9351273 14.04453631 -2 12 C-1.67 11.67 -1.34 11.34 -1 11 C-0.76636119 9.15108054 -0.58696365 7.29511969 -0.4375 5.4375 C-0.35371094 4.42558594 -0.26992188 3.41367187 -0.18359375 2.37109375 C-0.12300781 1.58863281 -0.06242188 0.80617188 0 0 Z " fill="#146CE4" transform="translate(753,451)"/>
<path d="M0 0 C0.33 0 0.66 0 1 0 C1.28504968 4.20672378 1.52181911 8.41483888 1.75 12.625 C1.87181641 14.40970703 1.87181641 14.40970703 1.99609375 16.23046875 C2.49360245 26.12536403 2.49360245 26.12536403 0.203125 29.8359375 C-2 32 -2 32 -5 32 C-4.505 30.515 -4.505 30.515 -4 29 C-3.34 29 -2.68 29 -2 29 C-2.33 27.02 -2.66 25.04 -3 23 C-2.34 22.67 -1.68 22.34 -1 22 C-1.00523682 21.44014404 -1.01047363 20.88028809 -1.01586914 20.3034668 C-1.03666691 17.76482263 -1.04966904 15.22619641 -1.0625 12.6875 C-1.07087891 11.80642578 -1.07925781 10.92535156 -1.08789062 10.01757812 C-1.09111328 9.17001953 -1.09433594 8.32246094 -1.09765625 7.44921875 C-1.10289307 6.66893311 -1.10812988 5.88864746 -1.11352539 5.0847168 C-1 3 -1 3 0 0 Z " fill="#2A77E2" transform="translate(440,754)"/>
<path d="M0 0 C0.66 0 1.32 0 2 0 C2.99283223 3.86570847 2.92923867 6.77602918 2.1875 10.6875 C2.01605469 11.64011719 1.84460938 12.59273438 1.66796875 13.57421875 C1 16 1 16 -1 18 C-1.69748583 19.31747324 -2.36959957 20.64914193 -3 22 C-4.32876931 18.67807672 -3.67973318 16.47112446 -2.61328125 13.1484375 C-1.38572128 8.84806817 -0.74870549 4.40461848 0 0 Z " fill="#2C7FE4" transform="translate(749,488)"/>
<path d="M0 0 C0.66 0.33 1.32 0.66 2 1 C-10.21354765 10.29965557 -10.21354765 10.29965557 -16 13 C-17.11375 13.556875 -17.11375 13.556875 -18.25 14.125 C-18.8275 14.41375 -19.405 14.7025 -20 15 C-15.23634185 7.94272867 -7.50443552 3.75221776 0 0 Z " fill="#3640CF" transform="translate(481,398)"/>
<path d="M0 0 C0.58203125 1.890625 0.58203125 1.890625 1 4 C-0.3125 5.75 -0.3125 5.75 -2 7 C-2.66 7 -3.32 7 -4 7 C-4 7.99 -4 8.98 -4 10 C-5.6796875 11.7890625 -5.6796875 11.7890625 -7.875 13.625 C-8.59429688 14.23601562 -9.31359375 14.84703125 -10.0546875 15.4765625 C-12 17 -12 17 -14 18 C-12.68761832 15.15741394 -11.23292824 12.90591755 -9.1796875 10.546875 C-8.64472656 9.928125 -8.10976563 9.309375 -7.55859375 8.671875 C-7.00300781 8.03765625 -6.44742188 7.4034375 -5.875 6.75 C-5.31167969 6.1003125 -4.74835937 5.450625 -4.16796875 4.78125 C-2.78235636 3.184273 -1.39167246 1.59169878 0 0 Z " fill="#1F61DD" transform="translate(678,471)"/>
<path d="M0 0 C2.35987485 3.53981227 2.12846596 4.2240177 1.375 8.25 C0.37271849 13.21524987 -1.20256886 16.80385329 -4 21 C-5.09178911 17.72463268 -4.93042848 16.95586381 -4.00390625 13.76953125 C-3.77509766 12.96708984 -3.54628906 12.16464844 -3.31054688 11.33789062 C-2.94026367 10.08782227 -2.94026367 10.08782227 -2.5625 8.8125 C-2.31951172 7.96751953 -2.07652344 7.12253906 -1.82617188 6.25195312 C-1.22506507 4.1657589 -0.61352166 2.08257699 0 0 Z " fill="#E5EEF7" transform="translate(748,507)"/>
<path d="M0 0 C0.66 0.33 1.32 0.66 2 1 C-3.28 6.28 -8.56 11.56 -14 17 C-14.33 15.68 -14.66 14.36 -15 13 C-14.28457031 12.61199219 -13.56914062 12.22398437 -12.83203125 11.82421875 C-9.67625579 9.79146407 -7.30425582 7.49903597 -4.6875 4.8125 C-3.36298828 3.46091797 -3.36298828 3.46091797 -2.01171875 2.08203125 C-1.34785156 1.39496094 -0.68398438 0.70789063 0 0 Z " fill="#3432CC" transform="translate(387,404)"/>
<path d="M0 0 C0.33 0 0.66 0 1 0 C1.66 4.29 2.32 8.58 3 13 C2.01 13 1.02 13 0 13 C0 11.02 0 9.04 0 7 C-0.66 7 -1.32 7 -2 7 C-1.125 2.25 -1.125 2.25 0 0 Z " fill="#2B6CDF" transform="translate(748,411)"/>
<path d="M0 0 C4.95 0.33 9.9 0.66 15 1 C15 1.33 15 1.66 15 2 C10.03926578 3.32286246 5.08888488 3.08893197 0 3 C0 2.01 0 1.02 0 0 Z " fill="#4442CE" transform="translate(544,247)"/>
<path d="M0 0 C0.66 0.33 1.32 0.66 2 1 C1.01 1.33 0.02 1.66 -1 2 C-1 2.66 -1 3.32 -1 4 C-5.74354436 6.22656164 -9.72250715 7.46148032 -15 8 C-13.41169958 4.82339917 -10.19515574 4.13200316 -7.0625 2.8125 C-6.41603516 2.52697266 -5.76957031 2.24144531 -5.10351562 1.94726562 C-3.42886164 1.23253791 -1.71580039 0.60936911 0 0 Z " fill="#1D5BDC" transform="translate(584,554)"/>
<path d="M0 0 C1.32 0.66 2.64 1.32 4 2 C2.91422246 5.25733261 2.13042199 6.00019136 -0.4375 8.125 C-1.05496094 8.64320313 -1.67242188 9.16140625 -2.30859375 9.6953125 C-4 11 -4 11 -6 12 C-4.97379138 9.7897045 -3.94283206 7.92682503 -2.4375 6 C-0.96806014 3.95556194 -0.43835352 2.45477972 0 0 Z " fill="#2163DC" transform="translate(685,459)"/>
<path d="M0 0 C1.1446875 0.2475 1.1446875 0.2475 2.3125 0.5 C7.22145849 1.16562149 12.05435114 1.07920078 17 1 C17.33 1.66 17.66 2.32 18 3 C12.06 3 6.12 3 0 3 C0 2.01 0 1.02 0 0 Z " fill="#396BDC" transform="translate(274,786)"/>
<path d="M0 0 C1.65 0 3.3 0 5 0 C1.79239749 3.80635497 -1.40746109 7.54563567 -5 11 C-5.66 10.67 -6.32 10.34 -7 10 C-5.38405168 7.95880212 -3.7143618 5.95927063 -2 4 C-1.34 4 -0.68 4 0 4 C0 2.68 0 1.36 0 0 Z " fill="#126EE2" transform="translate(691,606)"/>
<path d="M0 0 C4.38249366 1.33909529 6.57949251 3.08994944 9 7 C8.6015625 9.1640625 8.6015625 9.1640625 8 11 C6.66072279 9.54712339 5.32873153 8.08752741 4 6.625 C3.2575 5.81289063 2.515 5.00078125 1.75 4.1640625 C0 2 0 2 0 0 Z " fill="#2360DC" transform="translate(675,447)"/>
<path d="M0 0 C1.65 0.33 3.3 0.66 5 1 C5 1.99 5 2.98 5 4 C1.7 4.33 -1.6 4.66 -5 5 C-4.67 4.01 -4.34 3.02 -4 2 C-2.68 2 -1.36 2 0 2 C0 1.34 0 0.68 0 0 Z " fill="#2874E2" transform="translate(575,667)"/>
<path d="M0 0 C0.66 0 1.32 0 2 0 C0.54718935 5.32697239 -3.08111378 8.36402802 -7 12 C-7.33 11.01 -7.66 10.02 -8 9 C-7.34 9 -6.68 9 -6 9 C-6 8.34 -6 7.68 -6 7 C-5.02149805 5.97895449 -4.02019573 4.9793879 -3 4 C-2.67 3.34 -2.34 2.68 -2 2 C-1.34 2 -0.68 2 0 2 C0 1.34 0 0.68 0 0 Z " fill="#156DE2" transform="translate(705,592)"/>
<path d="M0 0 C0.66 0 1.32 0 2 0 C3.51403812 4.84492197 2.36602172 8.2591011 1 13 C0.67 13 0.34 13 0 13 C0 8.71 0 4.42 0 0 Z " fill="#1D73E3" transform="translate(749,488)"/>
<path d="M0 0 C0.33 0.66 0.66 1.32 1 2 C-3.62 2.66 -8.24 3.32 -13 4 C-8.19183282 0.39387462 -5.83154185 -0.12958982 0 0 Z " fill="#3A45CF" transform="translate(497,394)"/>
<path d="M0 0 C0.33 1.32 0.66 2.64 1 4 C0.01 4.33 -0.98 4.66 -2 5 C-2.71706982 6.98248715 -3.38290413 8.98415349 -4 11 C-4.66 11.66 -5.32 12.32 -6 13 C-5.51675181 7.84535266 -2.81389239 4.18449681 0 0 Z " fill="#313BCE" transform="translate(452,423)"/>
<path d="M0 0 C1.35015859 4.05047576 0.62084998 6.7920168 0 11 C-1.32 10.67 -2.64 10.34 -4 10 C-4 9.01 -4 8.02 -4 7 C-3.34 6.67 -2.68 6.34 -2 6 C-1.27306096 4.02111039 -0.60183749 2.02045442 0 0 Z " fill="#297EE4" transform="translate(743,518)"/>
<path d="M0 0 C4 0 4 0 7 2 C2.82262526 3.59138085 -0.53160785 4.21278058 -5 4 C-5 3.67 -5 3.34 -5 3 C-3.35 3 -1.7 3 0 3 C0 2.01 0 1.02 0 0 Z " fill="#2878E1" transform="translate(427,785)"/>
<path d="M0 0 C0.99 0 1.98 0 3 0 C1.55746343 3.36591866 -0.33264727 5.51047079 -3 8 C-3 6.68 -3 5.36 -3 4 C-2.34 4 -1.68 4 -1 4 C-0.67 2.68 -0.34 1.36 0 0 Z " fill="#403ECE" transform="translate(346,446)"/>
<path d="M0 0 C0.99 0 1.98 0 3 0 C3 2.31 3 4.62 3 7 C2.01 7.33 1.02 7.66 0 8 C0 5.36 0 2.72 0 0 Z " fill="#3471DD" transform="translate(440,688)"/>
<path d="M0 0 C0 0.33 0 0.66 0 1 C-3.63 1 -7.26 1 -11 1 C-11 0.67 -11 0.34 -11 0 C-6.53464227 -1.86921951 -4.33629181 -2.2956839 0 0 Z " fill="#2D75E1" transform="translate(399,788)"/>
<path d="M0 0 C1.09658936 3.28976808 0.79953138 4.71303767 0 8 C-0.99 8 -1.98 8 -3 8 C-2.45276317 4.62537285 -1.9451 2.91765 0 0 Z " fill="#2981E5" transform="translate(727,557)"/>
<path d="M0 0 C0.33 0.99 0.66 1.98 1 3 C-0.3125 4.5 -0.3125 4.5 -2 6 C-2.99 6 -3.98 6 -5 6 C-3.63016497 2.83884224 -3.0109362 2.0072908 0 0 Z " fill="#5E33C7" transform="translate(274,247)"/>
</svg>
